<?xml version="1.0" standalone="no"?>
<!DOCTYPE svg PUBLIC "-//W3C//DTD SVG 20010904//EN"
 "http://www.w3.org/TR/2001/REC-SVG-20010904/DTD/svg10.dtd">
<svg version="1.0" xmlns="http://www.w3.org/2000/svg"
 width="1338.000000pt" height="1338.000000pt" viewBox="0 0 1338.000000 1338.000000"
 preserveAspectRatio="xMidYMid meet">
<metadata>
Created by potrace 1.11, written by Peter Selinger 2001-2013
</metadata>
<g transform="translate(0.000000,1338.000000) scale(0.100000,-0.100000)"
fill="#000000" stroke="none">
<path d="M854 11015 c-34 -7 -88 -26 -120 -42 -59 -28 -184 -138 -184 -161 0
-32 31 -20 81 33 35 37 77 68 128 93 73 36 77 37 191 37 114 0 117 -1 191 -37
277 -137 339 -496 123 -712 -131 -131 -318 -167 -493 -94 -40 16 -55 29 -66
55 -15 35 -49 45 -73 21 -27 -27 -7 -78 30 -78 10 0 44 -13 76 -29 185 -93
408 -56 557 94 194 195 190 506 -9 693 -75 70 -144 106 -241 127 -84 18 -111
18 -191 0z"/>
<path d="M1741 11010 c-41 -11 -95 -32 -120 -46 -52 -30 -161 -132 -161 -151
0 -30 26 -22 67 22 94 97 201 145 327 145 123 0 222 -38 310 -121 112 -103
163 -283 122 -435 -56 -212 -278 -359 -490 -326 -90 14 -170 52 -188 88 -18
40 -63 45 -80 10 -9 -22 -8 -29 7 -46 10 -11 25 -20 33 -20 8 0 42 -13 76 -30
185 -91 410 -53 556 93 276 275 135 741 -249 823 -86 18 -121 17 -210 -6z"/>
<path d="M2700 11023 c-110 -18 -242 -90 -303 -165 -42 -51 -43 -54 -21 -62
11 -4 30 9 59 41 145 161 395 190 579 68 99 -66 164 -168 187 -294 51 -289
-216 -563 -500 -513 -81 14 -181 59 -181 81 0 23 -20 41 -45 41 -50 0 -63 -63
-17 -81 15 -6 58 -25 96 -42 387 -170 790 171 678 574 -34 123 -121 233 -229
292 -90 48 -219 74 -303 60z"/>
<path d="M3574 11016 c-96 -22 -173 -64 -241 -131 -64 -62 -74 -81 -49 -91 8
-3 35 18 67 51 35 37 77 68 128 93 73 36 77 37 191 37 114 0 117 -1 191 -37
207 -102 303 -339 226 -554 -70 -192 -284 -319 -482 -285 -102 18 -164 48
-180 88 -13 30 -18 34 -47 31 -28 -2 -34 -7 -36 -31 -4 -32 13 -57 38 -57 9 0
43 -13 76 -29 279 -137 609 18 689 324 27 106 12 232 -39 334 -32 63 -113 151
-176 191 -100 64 -245 91 -356 66z"/>
<path d="M4461 11010 c-109 -29 -197 -85 -264 -169 -24 -30 -26 -36 -12 -44
12 -6 29 5 69 46 174 177 443 186 627 20 148 -134 182 -375 76 -555 -84 -144
-285 -238 -447 -210 -87 16 -165 53 -182 88 -17 37 -61 45 -78 14 -17 -32 -3
-56 43 -73 23 -8 70 -27 105 -41 207 -88 466 -4 591 193 54 85 73 162 69 281
-3 97 -6 111 -40 183 -67 140 -194 240 -347 273 -86 18 -121 17 -210 -6z"/>
<path d="M5420 11023 c-108 -18 -239 -89 -303 -163 -41 -48 -44 -58 -22 -66
10 -4 31 11 59 42 208 230 590 178 726 -100 62 -126 62 -261 1 -392 -79 -169
-282 -277 -460 -246 -81 14 -181 59 -181 81 0 38 -55 56 -80 27 -23 -29 -8
-59 40 -77 25 -10 74 -29 109 -44 172 -72 379 -28 517 109 197 198 192 505
-13 701 -97 94 -268 149 -393 128z"/>
<path d="M6291 11014 c-36 -7 -90 -26 -120 -41 -57 -27 -181 -138 -181 -161 0
-32 31 -19 81 33 35 37 77 68 128 93 73 36 77 37 191 37 114 0 118 -1 191 -37
93 -46 168 -122 212 -215 30 -64 32 -74 32 -183 0 -112 -1 -117 -36 -190 -107
-220 -351 -313 -578 -218 -40 16 -55 29 -66 55 -12 27 -19 33 -45 33 -23 0
-33 -6 -39 -22 -11 -28 8 -62 35 -66 11 -2 46 -16 79 -32 146 -69 292 -67 437
6 252 126 342 455 189 691 -74 115 -184 190 -319 219 -81 17 -108 16 -191 -2z"/>
<path d="M7215 11020 c-113 -23 -236 -95 -299 -175 -23 -30 -26 -39 -15 -46
22 -14 25 -12 58 30 125 157 387 198 568 89 295 -177 278 -621 -31 -774 -91
-45 -182 -60 -266 -46 -87 16 -165 53 -182 88 -25 54 -98 36 -84 -20 4 -16 18
-28 48 -39 24 -8 71 -27 105 -41 165 -70 375 -31 508 95 107 101 155 211 155
353 0 198 -99 357 -275 441 -102 49 -197 64 -290 45z"/>
<path d="M8145 11024 c-129 -27 -211 -69 -287 -144 -60 -61 -68 -77 -43 -86
10 -4 31 11 59 42 188 208 533 189 688 -39 76 -112 101 -228 74 -350 -63 -280
-364 -432 -619 -312 -38 18 -56 34 -64 55 -20 52 -89 33 -81 -22 2 -16 15 -27
48 -39 25 -10 74 -29 109 -44 172 -72 379 -29 517 109 133 133 177 317 118
494 -39 119 -132 230 -237 283 -79 41 -216 66 -282 53z"/>
<path d="M9011 11015 c-36 -8 -89 -26 -119 -41 -58 -29 -182 -138 -182 -160 0
-34 30 -22 81 31 35 37 77 68 128 93 74 36 77 37 191 37 114 0 117 -1 192 -38
92 -45 167 -122 212 -217 29 -61 31 -72 31 -180 0 -109 -2 -119 -32 -183 -86
-181 -279 -288 -467 -259 -87 14 -172 53 -181 83 -9 29 -23 39 -52 39 -33 0
-48 -35 -28 -66 8 -13 23 -24 31 -24 9 0 44 -13 78 -29 149 -70 296 -68 441 7
280 146 348 519 138 753 -117 130 -300 191 -462 154z"/>
<path d="M9935 11020 c-116 -25 -240 -97 -299 -174 -23 -31 -26 -40 -15 -47
21 -13 23 -12 57 30 72 89 209 151 335 151 182 0 326 -91 403 -254 127 -267
-40 -578 -337 -628 -118 -19 -281 27 -311 88 -25 54 -98 36 -84 -20 4 -16 18
-28 48 -39 24 -8 71 -27 105 -41 232 -98 507 13 621 251 36 77 37 80 37 198 0
142 -18 198 -93 298 -105 137 -313 221 -467 187z"/>
<path d="M10824 11015 c-88 -19 -177 -68 -245 -134 -61 -59 -70 -77 -44 -87
10 -4 31 11 59 42 92 102 210 149 358 142 75 -4 96 -9 160 -41 140 -70 227
-187 248 -334 49 -348 -309 -617 -623 -467 -38 17 -56 33 -64 54 -19 51 -89
33 -81 -21 3 -23 11 -29 63 -47 17 -6 59 -23 95 -39 59 -25 76 -28 175 -27 96
0 118 4 176 28 331 136 413 562 155 804 -75 70 -144 106 -241 127 -84 18 -111
18 -191 0z"/>
<path d="M11731 11015 c-36 -8 -89 -26 -119 -41 -58 -29 -182 -138 -182 -160
0 -34 30 -22 81 31 76 81 173 127 280 133 136 8 238 -25 330 -107 123 -108
177 -288 135 -447 -56 -213 -276 -359 -489 -326 -93 15 -162 47 -186 88 -25
43 -65 47 -83 9 -9 -21 -8 -28 7 -45 10 -11 25 -20 33 -20 8 0 42 -13 76 -30
141 -69 297 -67 438 7 282 147 351 519 140 754 -116 130 -299 191 -461 154z"/>
<path d="M12655 11020 c-115 -24 -240 -97 -297 -173 -33 -42 -33 -43 -12 -51
10 -4 33 12 67 47 94 96 190 137 324 137 393 1 588 -471 311 -753 -100 -101
-248 -151 -378 -129 -87 16 -165 53 -182 88 -25 54 -98 36 -84 -20 4 -16 18
-28 48 -39 24 -8 71 -27 105 -41 172 -73 381 -30 517 107 107 106 151 221 144
371 -6 111 -32 184 -96 269 -104 136 -313 221 -467 187z"/>
<path d="M90 10685 c0 -34 -1 -35 -40 -35 l-40 0 0 -4155 0 -4155 6610 0 6610
0 0 40 c0 39 1 40 35 40 33 0 35 2 35 35 l0 35 -6570 0 -6570 0 0 4115 0 4115
-35 0 c-33 0 -35 -2 -35 -35z"/>
<path d="M7460 8765 c-218 -39 -539 -151 -707 -247 l-73 -42 0 -358 c0 -280 3
-358 13 -358 6 0 35 18 62 41 208 168 475 304 718 365 138 35 351 43 486 20
166 -29 317 -111 403 -219 56 -70 113 -195 132 -289 30 -144 16 -389 -30 -525
-83 -248 -272 -415 -554 -489 -45 -12 -124 -19 -255 -23 l-190 -6 -3 -281 -2
-281 207 -6 c279 -8 422 -34 553 -103 177 -92 291 -265 347 -526 28 -130 25
-496 -5 -637 -57 -263 -197 -484 -377 -596 -252 -157 -573 -179 -924 -64 -194
63 -441 196 -597 320 -34 27 -71 49 -83 49 -21 0 -21 -1 -21 -355 l0 -355 33
-21 c102 -64 359 -168 553 -224 436 -126 873 -106 1198 57 426 212 706 672
767 1257 15 146 6 463 -16 591 -54 299 -200 557 -405 712 -78 59 -275 160
-359 184 -51 14 -61 20 -61 39 0 18 11 26 63 45 142 51 247 122 363 242 219
228 328 490 341 823 16 403 -90 714 -322 948 -156 158 -346 258 -585 309 -74
15 -144 21 -315 24 -199 3 -233 1 -355 -21z"/>
<path d="M1090 8682 c0 -5 70 -355 155 -778 85 -423 285 -1417 444 -2209 159
-792 320 -1592 357 -1778 l68 -337 285 2 285 3 63 335 c35 184 72 382 82 440
11 58 42 224 70 370 28 146 100 528 160 850 61 322 167 887 236 1255 70 369
138 733 152 810 14 77 29 144 32 148 4 4 22 -70 41 -165 18 -95 162 -847 321
-1671 159 -824 325 -1688 369 -1920 45 -232 83 -430 86 -439 5 -17 28 -18 294
-18 319 0 291 -6 304 65 7 38 259 1319 371 1885 46 234 122 619 169 855 91
458 341 1727 407 2060 21 110 41 210 44 223 l5 22 -253 0 -254 0 -16 -87 c-8
-49 -59 -317 -112 -598 -53 -280 -107 -566 -120 -635 -13 -69 -53 -282 -90
-475 -85 -450 -125 -659 -229 -1210 -46 -247 -115 -607 -151 -800 -37 -192
-71 -376 -77 -408 -6 -32 -14 -55 -18 -50 -3 4 -26 112 -50 238 -23 127 -67
358 -96 515 -30 157 -97 512 -150 790 -52 278 -122 645 -154 815 -213 1124
-256 1355 -296 1565 -24 129 -49 259 -55 288 l-10 52 -262 -2 -261 -3 -27
-145 c-16 -80 -58 -302 -94 -495 -36 -192 -84 -442 -105 -555 -21 -113 -60
-315 -85 -450 -25 -135 -66 -348 -90 -475 -24 -126 -71 -376 -105 -555 -34
-179 -77 -406 -95 -505 -19 -99 -57 -297 -84 -440 -27 -143 -64 -338 -82 -434
-22 -118 -35 -168 -41 -155 -4 10 -86 429 -182 929 -96 501 -270 1405 -386
2010 -116 605 -219 1138 -228 1185 l-17 85 -262 3 c-147 1 -263 -2 -263 -6z"/>
<path d="M9930 8390 l0 -300 1106 0 c1049 0 1106 -1 1101 -17 -2 -10 -421
-1023 -931 -2250 -509 -1228 -926 -2235 -926 -2238 0 -3 125 -4 277 -3 l277 3
39 95 c21 52 95 235 164 405 69 171 153 380 188 465 35 85 110 272 168 415 58
143 258 638 445 1100 187 462 392 968 455 1125 64 157 156 386 206 509 l91
224 0 384 0 383 -1330 0 -1330 0 0 -300z"/>
</g>
</svg>
